<?xml version="1.0" standalone="no"?>
<!DOCTYPE svg PUBLIC "-//W3C//DTD SVG 20010904//EN"
 "http://www.w3.org/TR/2001/REC-SVG-20010904/DTD/svg10.dtd">
<svg version="1.0" xmlns="http://www.w3.org/2000/svg"
 width="4267.000000pt" height="1153.000000pt" viewBox="0 0 4267.000000 1153.000000"
 preserveAspectRatio="xMidYMid meet">

<g transform="translate(0.000000,1153.000000) scale(0.100000,-0.100000)"
fill="#000000" stroke="none">
<path d="M12087 8441 c-21 -31 -34 -40 -66 -46 -22 -4 -61 -20 -86 -37 -46
-31 -115 -106 -115 -126 0 -6 12 -38 27 -72 l26 -61 -46 -47 c-31 -31 -51 -63
-61 -96 -19 -64 -53 -110 -126 -174 l-60 -53 0 -65 0 -64 -30 0 -30 0 0 -86 0
-85 -22 15 c-12 9 -26 16 -30 16 -3 0 -14 -24 -22 -54 -17 -59 -50 -93 -98
-103 -31 -6 -32 -10 -18 -48 9 -24 8 -26 -10 -20 -16 5 -26 -7 -65 -84 -35
-70 -51 -92 -70 -97 -31 -8 -41 -25 -50 -86 -7 -45 -9 -48 -44 -53 -80 -13
-78 -12 -85 -61 -9 -67 -60 -155 -138 -237 l-68 -72 0 -63 c0 -54 -4 -67 -25
-88 -13 -13 -38 -27 -54 -30 -25 -5 -31 -13 -45 -65 l-17 -59 -51 0 c-42 0
-49 -3 -44 -16 3 -9 -10 -56 -29 -104 -19 -48 -35 -97 -35 -109 0 -25 -9 -27
-25 -4 -11 15 -17 13 -61 -19 -27 -20 -58 -46 -68 -57 -18 -19 -18 -22 -2 -46
16 -25 16 -26 -32 -89 -42 -55 -51 -63 -63 -51 -12 12 -23 8 -72 -22 l-58 -36
-99 9 -100 9 0 -30 c0 -26 -13 -42 -85 -105 -73 -64 -85 -78 -80 -99 7 -28 64
-111 77 -111 4 0 8 -27 8 -59 0 -59 0 -59 -142 -278 l-141 -219 -60 -24 c-57
-24 -61 -28 -77 -75 -44 -129 -130 -249 -225 -315 -29 -20 -45 -40 -53 -68
-16 -54 -83 -118 -144 -140 -28 -9 -52 -24 -55 -32 -32 -104 -80 -157 -203
-223 -69 -37 -98 -47 -157 -52 -77 -8 -84 -15 -63 -56 9 -16 5 -26 -20 -57
-26 -32 -30 -44 -30 -98 0 -34 -7 -78 -15 -97 -8 -20 -15 -40 -15 -44 0 -5 40
-19 90 -32 l90 -23 114 71 114 71 104 170 c88 145 107 170 128 170 20 1 48 31
144 156 89 115 133 164 170 188 55 35 82 70 294 386 l117 174 68 17 c38 10 70
19 71 21 138 201 253 340 332 400 l56 42 66 -23 65 -23 30 23 30 22 56 -62 56
-63 72 31 c57 25 86 31 140 31 61 0 74 -4 110 -30 l40 -30 54 29 53 29 37 -19
c47 -24 49 -24 49 1 0 14 9 21 33 25 68 11 195 9 267 -4 l76 -14 69 46 70 47
175 0 c147 1 184 4 230 20 73 26 88 25 96 -5 8 -32 20 -31 68 1 l38 26 28 -20
27 -20 60 39 60 39 72 -15 c99 -21 105 -20 164 20 41 28 61 35 99 35 l48 0 0
-90 c0 -85 2 -93 34 -142 62 -99 76 -135 92 -250 14 -97 21 -119 49 -158 17
-25 73 -144 124 -266 90 -215 94 -222 155 -283 l63 -63 6 -71 c4 -69 6 -73 46
-108 36 -33 41 -42 41 -81 0 -33 6 -50 22 -64 36 -32 132 -166 168 -235 27
-53 42 -70 79 -90 37 -20 52 -37 84 -96 l39 -73 43 0 c35 0 52 -8 101 -45 48
-38 65 -45 101 -45 38 0 53 -7 112 -55 38 -30 71 -55 75 -55 10 0 116 81 116
89 0 3 -14 18 -31 32 -18 15 -42 52 -58 90 -26 62 -29 65 -105 105 -66 35 -81
48 -107 92 -16 29 -59 89 -96 134 -36 45 -110 157 -164 248 -76 130 -112 181
-165 232 l-67 65 15 62 16 62 -98 143 c-96 141 -98 145 -108 223 -10 73 -16
88 -66 160 l-55 80 -12 142 c-9 109 -9 154 -1 193 12 49 11 51 -18 85 -35 40
-35 49 4 77 37 28 128 26 215 -4 36 -12 67 -17 70 -12 14 22 60 35 148 42 76
7 108 15 159 40 l65 32 90 -12 90 -12 78 61 79 61 58 -20 c31 -11 67 -20 80
-20 26 0 64 43 64 74 0 20 -4 21 -96 18 -94 -3 -98 -2 -164 32 -37 20 -79 36
-93 36 -13 0 -46 -16 -72 -36 -81 -63 -164 -77 -280 -49 -86 21 -235 19 -348
-5 -104 -21 -134 -18 -194 22 -42 28 -115 124 -155 202 l-30 59 18 39 c16 35
16 48 6 122 -7 45 -12 108 -12 139 0 53 -3 60 -45 107 -45 51 -45 51 -29 81
19 38 18 41 -50 132 -55 73 -56 74 -66 169 -5 53 -26 156 -46 229 -28 107 -47
155 -95 238 -47 84 -66 130 -94 236 -21 78 -38 171 -42 225 l-6 93 -37 14
c-29 12 -42 26 -63 68 -14 29 -39 68 -56 87 -27 31 -30 43 -36 124 -9 136 -6
129 -93 173 -109 56 -129 72 -168 130 -19 28 -36 51 -38 51 -2 0 -15 -18 -29
-39z m12 -796 c97 -51 137 -88 198 -183 57 -87 72 -141 73 -250 0 -29 5 -45
15 -48 8 -4 15 -17 15 -30 0 -14 13 -51 30 -84 18 -35 34 -88 40 -131 9 -60
19 -86 64 -158 l54 -86 12 -130 c17 -200 14 -190 77 -225 42 -24 53 -35 48
-48 -4 -9 -14 -37 -22 -60 l-15 -44 36 -30 c37 -30 96 -121 96 -147 0 -8 -18
-29 -40 -48 -22 -19 -40 -39 -40 -43 0 -5 14 -29 30 -52 110 -155 -10 -207
-366 -160 -125 17 -138 17 -255 0 -68 -9 -212 -24 -320 -33 -108 -9 -211 -20
-230 -25 -49 -14 -103 -12 -166 6 -47 14 -65 14 -117 4 -33 -6 -69 -13 -79
-15 -9 -2 -70 10 -134 26 -64 16 -143 29 -176 29 -45 0 -84 10 -168 43 -110
42 -110 42 -104 72 3 17 8 60 11 96 l7 67 86 34 86 34 40 132 c38 126 41 132
71 142 86 29 183 168 214 308 l14 63 89 47 c49 25 92 53 97 62 4 8 13 40 20
70 12 49 24 67 107 154 58 62 108 126 131 170 21 39 79 127 127 196 49 69 108
156 132 195 32 52 54 76 86 92 23 12 46 22 51 23 4 0 38 -16 75 -35z"/>
<path d="M26430 8274 c-41 -26 -77 -48 -79 -50 -11 -10 -51 -259 -51 -319 0
-38 12 -155 27 -260 l27 -190 -25 -100 c-25 -99 -25 -101 -12 -263 8 -100 19
-175 28 -192 20 -38 19 -43 -4 -30 -38 20 -40 13 -34 -88 7 -112 -4 -185 -49
-351 l-31 -114 -104 -66 -103 -66 5 -55 c2 -30 7 -90 11 -132 l6 -78 71 -43
c65 -39 74 -48 89 -93 12 -33 17 -82 18 -151 0 -179 49 -834 65 -882 8 -25 15
-80 15 -125 0 -72 3 -83 25 -106 l25 -26 -40 -18 c-47 -21 -77 -56 -86 -102
-8 -41 19 -90 111 -204 l63 -78 10 -225 c8 -192 12 -231 29 -264 23 -43 83
-83 128 -83 52 0 57 8 45 87 -7 56 -7 80 4 110 13 36 12 43 -16 112 -28 73
-29 77 -23 200 6 112 4 133 -14 184 l-20 58 30 192 30 192 -37 77 -37 77 37
81 37 82 -17 78 c-15 73 -15 86 0 192 10 73 16 181 16 303 0 335 26 379 242
415 58 10 133 10 218 -2 19 -2 26 2 28 19 l3 21 55 -24 c31 -13 89 -29 131
-35 l76 -10 33 32 33 32 44 -23 44 -24 107 26 106 25 72 -53 c39 -30 75 -54
80 -54 4 0 19 25 33 55 13 30 29 55 35 55 6 0 39 -7 74 -16 l63 -16 121 41
c66 23 134 41 149 41 16 0 61 -9 101 -20 44 -12 87 -18 110 -15 20 3 122 -5
226 -19 l188 -24 190 65 c181 62 194 65 271 62 201 -7 230 -5 293 22 59 25 61
25 101 8 40 -17 41 -17 76 6 l34 24 23 -24 22 -24 80 30 80 29 -6 -57 c-3 -32
-9 -215 -12 -408 -6 -320 -8 -353 -26 -388 l-19 -39 25 -37 c14 -20 26 -43 26
-50 0 -7 -14 -60 -30 -117 -29 -99 -30 -108 -24 -230 4 -75 2 -208 -6 -329
-10 -152 -10 -213 -2 -246 7 -28 8 -45 2 -47 -14 -5 -12 -166 1 -235 10 -48
16 -57 41 -68 l31 -12 -33 -27 -33 -27 22 -57 c19 -50 21 -78 21 -239 1 -204
7 -231 83 -350 20 -31 37 -70 38 -85 0 -15 4 -36 8 -46 7 -18 8 -18 30 5 34
35 63 105 60 143 -2 22 5 42 24 67 19 26 27 48 27 77 0 53 -18 135 -41 190
-16 37 -17 53 -9 113 9 61 8 75 -7 100 -16 27 -16 33 0 100 10 40 14 75 9 78
-4 3 9 110 29 236 38 228 38 232 32 433 l-6 203 27 28 27 28 -15 61 c-22 82
-20 128 5 164 12 16 24 50 27 74 4 37 1 49 -17 68 -22 23 -22 25 -7 77 21 73
36 195 36 285 0 61 -3 77 -19 91 -20 16 -20 17 0 44 32 45 67 131 74 182 7 46
7 47 -19 47 -14 0 -26 2 -26 5 0 2 40 59 89 125 l89 120 68 -55 69 -55 20 35
c11 18 27 46 36 62 14 25 32 33 183 76 l167 47 44 -30 c24 -16 46 -30 48 -30
3 0 31 21 63 46 l59 46 75 -6 75 -6 85 77 c47 42 87 80 88 85 5 12 -194 10
-260 -2 -38 -7 -82 -8 -133 -1 -72 9 -83 7 -239 -34 -108 -28 -197 -45 -262
-49 -55 -4 -141 -14 -192 -23 -51 -8 -95 -13 -98 -10 -3 3 6 162 20 354 18
251 22 365 16 409 -9 55 -7 68 24 150 l33 89 -23 63 c-15 39 -24 84 -24 120 0
41 -11 89 -39 167 l-39 110 29 57 c25 50 29 69 29 142 l0 85 -41 -14 c-23 -8
-45 -15 -50 -15 -5 0 -9 29 -9 65 0 36 -3 65 -7 65 -5 0 -35 -7 -68 -15 -84
-20 -84 -20 -106 30 l-20 45 -69 0 c-60 0 -70 -2 -70 -17 0 -18 16 -91 26
-125 5 -15 -1 -18 -37 -18 -50 0 -112 -38 -135 -81 -26 -51 -16 -100 80 -384
l93 -279 -29 -70 -30 -69 30 -187 30 -187 -20 -72 -21 -72 20 -95 c20 -93 20
-95 2 -118 -25 -31 -24 -34 12 -90 16 -27 28 -50 25 -53 -2 -3 -87 1 -188 7
l-183 12 -472 -51 c-260 -28 -483 -49 -496 -46 -13 4 -38 0 -56 -7 -47 -19
-228 4 -294 38 l-47 24 -32 -36 c-30 -34 -34 -35 -75 -29 -24 3 -159 1 -299
-6 l-254 -12 -47 23 c-58 29 -93 20 -107 -27 l-10 -31 -76 38 -75 38 -95 -10
c-57 -5 -124 -5 -169 0 -58 7 -102 5 -186 -8 -105 -16 -113 -16 -164 2 -35 12
-83 18 -139 18 -83 0 -84 0 -78 23 3 12 13 85 22 162 15 122 21 146 47 188
l30 48 -31 69 -31 70 25 142 c13 79 33 207 44 285 22 155 27 343 9 343 -5 0
-17 16 -25 36 -14 34 -13 43 17 164 l33 129 -37 45 c-35 42 -37 48 -37 115 0
57 -3 71 -15 71 -22 0 -91 36 -148 76 -26 19 -48 34 -50 34 -1 0 -36 -21 -77
-46z"/>
<path d="M22210 8235 c-27 -27 -52 -44 -64 -43 -47 4 -160 -45 -207 -88 -25
-24 -53 -44 -61 -44 -31 0 -106 -62 -151 -125 -54 -75 -115 -118 -199 -142
l-57 -16 -17 -72 c-16 -69 -19 -72 -64 -98 -62 -35 -64 -39 -86 -131 -17 -74
-23 -83 -79 -141 -33 -33 -71 -78 -85 -98 -18 -27 -38 -41 -75 -53 -27 -9 -51
-18 -53 -19 -2 -2 4 -17 12 -34 37 -70 16 -137 -70 -233 -46 -52 -80 -123 -95
-199 -20 -107 -39 -170 -54 -175 -9 -4 -16 -30 -21 -74 -6 -59 -9 -69 -27 -72
-16 -2 -30 -25 -58 -94 -43 -107 -146 -491 -155 -580 -5 -52 -10 -64 -30 -73
-22 -10 -24 -17 -24 -79 0 -50 -8 -93 -30 -157 -27 -79 -29 -95 -21 -141 6
-29 17 -70 26 -91 14 -32 15 -64 9 -213 -8 -214 0 -255 87 -418 33 -62 71
-142 85 -178 39 -104 61 -141 115 -192 61 -57 74 -79 94 -170 9 -39 22 -75 28
-80 7 -5 61 -22 121 -37 l108 -29 24 -56 25 -56 80 -28 c45 -16 102 -44 128
-63 50 -37 224 -123 247 -123 8 0 30 7 50 15 32 13 40 13 90 -6 49 -19 61 -20
100 -9 71 20 179 5 228 -31 49 -36 87 -37 145 -3 l45 25 86 -21 c118 -27 149
-26 284 15 111 34 119 35 180 24 l63 -12 104 69 c145 97 215 123 353 133 110
7 112 8 216 63 58 31 139 68 180 83 103 36 164 72 310 183 138 105 209 143
282 150 45 4 52 9 100 66 28 33 65 81 81 107 23 34 65 68 178 143 l147 98 32
88 32 89 47 6 c76 10 122 25 147 50 28 28 30 58 9 135 -8 30 -15 56 -15 57 0
2 36 24 80 49 44 26 80 48 80 49 0 2 -19 17 -41 34 l-42 30 -79 -42 c-72 -38
-99 -63 -315 -289 -228 -239 -237 -247 -310 -279 -63 -27 -83 -42 -124 -93
-45 -56 -58 -65 -171 -117 -117 -53 -124 -58 -153 -107 -28 -47 -36 -53 -115
-85 -47 -19 -111 -40 -143 -46 -70 -13 -170 -59 -213 -99 -22 -20 -47 -31 -80
-36 -58 -8 -105 -34 -121 -67 -12 -24 -13 -25 -80 -16 -99 14 -173 -4 -228
-54 -54 -50 -101 -69 -167 -69 -32 0 -84 -10 -130 -26 l-77 -27 -31 27 c-27
23 -40 26 -101 26 -39 0 -69 4 -69 10 0 25 -88 1 -130 -35 -8 -8 -58 -29 -112
-49 l-96 -34 -49 56 -50 56 -93 -28 -93 -28 -56 55 -56 55 -174 13 -173 13 5
41 c4 22 9 47 12 56 4 11 -29 27 -135 69 l-140 54 0 39 c0 35 -8 48 -85 129
l-84 90 19 47 19 48 -35 51 c-28 42 -34 61 -34 102 0 46 -4 54 -40 89 -22 21
-40 47 -40 58 0 27 -23 82 -61 143 l-31 50 18 107 c13 80 16 156 15 294 -2
158 0 187 13 198 12 10 16 32 16 82 0 67 1 69 25 69 29 0 28 0 15 35 -8 22 -3
39 31 108 l41 81 -12 71 c-7 38 -15 76 -17 83 -4 8 5 12 25 12 22 0 31 6 36
23 3 12 20 76 37 142 26 104 40 137 105 247 70 120 74 131 74 187 l0 60 59 48
c58 48 59 49 96 165 37 113 39 116 76 131 32 13 51 35 124 148 68 104 115 163
214 264 72 73 157 172 194 227 78 113 94 121 228 117 74 -2 82 0 122 28 40 29
45 30 97 22 49 -8 58 -6 92 16 46 30 52 31 94 4 l34 -21 18 22 c12 15 32 23
62 27 42 4 50 0 109 -46 l65 -51 92 0 c51 0 94 -3 96 -7 2 -5 20 -21 41 -36
20 -15 37 -34 37 -41 0 -7 36 -25 82 -40 140 -46 244 -128 340 -269 l39 -58
-16 -81 c-13 -64 -16 -113 -11 -222 18 -431 42 -533 151 -622 l45 -37 83 18
83 17 55 66 c87 105 88 107 82 173 -3 32 -1 84 6 116 6 32 11 112 12 178 l1
120 -65 188 c-55 159 -70 194 -104 230 -22 23 -50 66 -63 95 -23 51 -25 52
-331 246 -279 176 -320 199 -445 245 -75 29 -148 58 -163 65 -14 8 -73 21
-129 31 -116 19 -190 15 -303 -16 -94 -26 -135 -19 -174 32 -16 21 -32 38 -35
39 -3 0 -26 -20 -50 -45z"/>
<path d="M8244 8166 c-20 -20 -38 -52 -46 -80 -11 -43 -14 -46 -46 -46 -29 0
-33 -3 -27 -17 16 -39 15 -50 -10 -106 -14 -32 -31 -89 -37 -128 l-12 -69 39
-43 c40 -42 40 -43 37 -113 -3 -70 -3 -71 -37 -87 -39 -19 -40 -21 -24 -66 10
-28 7 -41 -31 -126 l-43 -94 26 -31 c21 -24 24 -35 17 -53 -5 -12 -46 -114
-90 -227 -97 -245 -117 -282 -211 -383 -60 -66 -82 -99 -129 -202 -32 -68 -84
-161 -116 -206 -32 -45 -103 -165 -159 -265 -91 -165 -111 -194 -204 -294 -81
-86 -115 -133 -161 -217 l-58 -107 -61 -14 -61 -13 0 -42 c0 -55 -29 -107 -73
-132 -61 -35 -137 -143 -151 -215 -4 -19 -26 -76 -48 -125 -42 -90 -42 -90
-120 -138 -80 -49 -92 -64 -103 -128 -4 -29 -15 -43 -60 -73 -42 -29 -56 -45
-60 -70 -3 -17 -12 -76 -20 -131 -9 -54 -17 -101 -19 -103 -9 -8 -128 184
-243 393 -28 50 -83 173 -123 275 -70 180 -74 186 -125 230 -49 41 -54 50 -65
105 -16 86 -38 150 -80 235 -31 63 -45 115 -86 321 l-48 247 -38 23 c-33 20
-39 31 -48 79 -17 85 -29 120 -65 185 -31 58 -32 64 -23 120 l8 60 -110 274
-110 274 -11 130 c-10 101 -10 156 0 246 6 64 9 143 5 174 -6 54 -10 60 -48
87 -23 15 -70 58 -106 94 l-64 66 -74 0 c-68 0 -73 -1 -67 -20 9 -28 -17 -62
-85 -109 -62 -44 -61 -41 -81 -166 -16 -104 -27 -134 -73 -195 -40 -54 -41
-58 -46 -150 l-5 -94 -43 -33 c-35 -26 -53 -33 -90 -33 l-47 0 -43 -80 c-39
-71 -47 -80 -72 -80 -26 0 -30 -5 -49 -67 -11 -38 -33 -89 -50 -114 -27 -43
-33 -47 -79 -54 -49 -6 -50 -7 -56 -46 -9 -53 -79 -123 -168 -168 -59 -30 -72
-42 -116 -110 -27 -42 -52 -88 -56 -103 -6 -28 -12 -31 -88 -43 -31 -5 -38
-11 -48 -40 -9 -28 -19 -37 -52 -47 -74 -22 -116 -79 -132 -179 -6 -33 -11
-38 -66 -60 -58 -23 -60 -25 -90 -94 -24 -54 -53 -94 -128 -175 -97 -105 -98
-106 -112 -179 l-14 -73 -60 -40 c-106 -71 -126 -95 -126 -149 0 -26 -5 -51
-10 -54 -31 -19 -91 -113 -111 -172 -17 -52 -40 -90 -97 -160 -68 -85 -77 -93
-109 -93 -34 0 -35 -1 -91 -120 -31 -66 -61 -120 -66 -120 -22 0 -86 84 -130
170 -36 69 -55 95 -75 103 -26 9 -29 18 -50 128 -21 110 -25 118 -50 127 -25
9 -27 15 -38 110 -9 70 -20 117 -38 151 -18 37 -25 66 -25 111 0 58 -1 60 -33
74 l-33 13 -39 184 c-22 103 -50 210 -66 244 -21 47 -36 119 -69 335 -43 273
-43 276 -91 371 -39 80 -47 102 -42 135 3 22 -19 202 -51 422 -31 210 -56 405
-56 433 0 28 9 87 21 131 19 75 19 81 3 99 -14 16 -15 23 -4 49 17 42 7 160
-19 231 -40 105 -151 199 -237 199 -65 0 -114 -78 -114 -180 0 -33 -9 -64 -29
-101 -15 -30 -38 -82 -51 -116 l-22 -62 31 -49 c28 -44 32 -61 51 -225 11 -97
20 -217 20 -265 0 -72 5 -100 26 -153 36 -89 63 -140 86 -166 19 -21 19 -23 3
-78 l-16 -56 111 -364 c84 -278 110 -378 110 -420 0 -34 17 -120 41 -213 32
-123 52 -178 94 -257 48 -90 55 -111 68 -206 14 -98 20 -115 94 -265 68 -135
87 -186 127 -334 47 -173 49 -177 170 -395 68 -121 132 -247 143 -280 21 -61
229 -378 279 -422 52 -47 153 -42 184 9 24 40 36 128 21 168 -10 29 -8 34 24
66 44 44 52 77 33 131 l-16 43 29 0 c16 0 29 2 29 4 0 3 -10 22 -22 42 -12 21
-25 63 -29 93 -4 31 -10 64 -14 73 -5 13 3 28 28 53 20 20 41 52 47 73 7 20
28 66 47 102 20 36 48 101 62 145 25 74 30 81 68 100 40 19 42 22 45 74 3 53
3 54 47 71 53 20 68 39 76 95 4 23 26 77 49 121 37 69 54 89 140 159 92 76
102 88 197 240 122 196 278 403 359 479 34 31 101 103 150 160 104 121 138
150 200 166 51 13 157 70 201 107 16 13 34 43 41 65 13 45 94 119 231 212 96
65 157 123 187 180 14 27 39 64 57 84 l32 37 1 -35 c1 -91 50 -225 127 -350
33 -54 38 -70 32 -95 -7 -24 4 -56 65 -195 66 -149 76 -181 106 -331 l32 -165
43 -27 c46 -29 45 -26 61 -152 9 -67 23 -100 82 -187 71 -105 83 -133 147
-328 31 -96 73 -204 93 -240 19 -36 56 -113 81 -171 44 -102 49 -109 132 -182
l86 -76 5 -124 5 -124 96 -165 c77 -135 106 -197 153 -331 l58 -165 53 -26
c60 -29 97 -32 145 -12 18 8 59 24 90 36 96 37 95 31 60 237 l-30 178 39 72
c36 67 39 78 39 154 l0 82 54 61 c60 69 75 94 105 187 16 48 51 107 126 213
58 82 119 173 136 204 18 32 53 80 80 107 45 47 54 65 112 218 5 16 38 59 72
97 34 37 70 87 79 112 16 42 22 46 80 67 l63 22 59 132 c52 118 68 143 146
232 82 94 88 104 108 180 11 44 25 90 30 101 5 12 88 128 184 258 97 130 176
243 176 250 0 8 21 51 47 97 26 46 70 136 98 199 27 63 63 136 78 162 56 96
117 270 172 487 14 57 37 125 51 152 30 61 31 105 0 149 l-23 34 29 51 c17 27
39 65 50 82 l20 33 -113 115 c-82 84 -122 118 -148 125 -53 15 -60 13 -97 -24z"/>
<path d="M35109 8129 c-20 -8 -32 -25 -49 -69 l-22 -60 -44 0 -44 0 0 -40 c0
-40 -2 -42 -47 -55 -8 -3 -2 -24 19 -64 29 -56 30 -64 19 -100 -6 -22 -24 -53
-40 -70 -25 -26 -36 -48 -68 -128 -2 -6 9 -14 27 -18 l31 -7 -7 -61 c-4 -34
-9 -65 -11 -69 -2 -5 -29 -8 -59 -8 -41 0 -54 -4 -54 -15 0 -19 37 -43 78 -51
18 -4 32 -10 32 -13 0 -4 -9 -47 -19 -96 -20 -91 -18 -104 17 -105 14 0 16
-26 2 -35 -5 -3 -10 -45 -10 -93 0 -48 -7 -112 -15 -142 -14 -51 -13 -56 5
-75 20 -21 20 -22 1 -78 -19 -54 -19 -65 -6 -279 l13 -223 -29 -215 c-29 -206
-30 -228 -27 -522 l3 -306 -42 -62 c-24 -34 -43 -65 -43 -70 0 -4 24 -26 54
-49 l54 -42 -16 -40 c-14 -37 -14 -44 2 -94 l17 -55 -34 -51 -35 -51 35 -80
c35 -80 35 -81 24 -155 -16 -107 -15 -114 28 -181 l40 -61 -29 -36 c-32 -40
-30 -54 10 -90 12 -11 40 -41 61 -67 l40 -47 -16 -66 c-20 -86 -20 -83 18 -93
42 -11 133 -120 150 -181 11 -40 55 -91 78 -91 18 0 70 85 89 148 23 74 23 74
-53 93 l-48 11 21 36 21 35 -50 51 c-28 29 -51 54 -51 58 0 3 11 9 25 12 l26
7 -25 32 c-38 51 -66 114 -66 148 0 18 11 60 24 93 13 34 27 76 31 93 6 31 4
34 -39 55 -31 15 -45 27 -42 38 25 85 37 210 36 364 -2 157 0 175 20 220 l22
49 -22 72 c-21 68 -22 79 -11 180 11 112 33 177 70 209 l21 19 -44 47 c-73 78
-82 170 -17 170 27 0 31 4 37 37 6 31 1 48 -31 108 l-39 71 32 56 c27 47 31
60 22 83 -15 39 -13 45 15 45 14 0 25 4 25 9 0 5 -17 47 -39 93 -59 129 -59
122 -6 142 50 20 52 25 36 135 -4 30 -4 75 1 100 7 36 6 48 -6 55 -12 8 -2 34
55 148 l69 138 -11 75 c-11 74 -11 76 22 155 31 75 31 81 16 98 -21 23 -21 36
-2 52 19 15 20 109 3 192 -10 47 -9 68 1 106 18 67 40 226 31 230 -4 1 -15 8
-23 15 -15 11 -15 17 5 71 14 38 29 61 41 64 14 4 17 11 12 30 -18 72 -103
122 -204 121 -37 0 -78 -5 -92 -10z"/>
<path d="M17047 8068 c-7 -18 -24 -63 -37 -100 -24 -68 -24 -68 -61 -68 -21 0
-92 -21 -161 -48 l-123 -48 -195 17 c-107 10 -287 21 -400 25 -198 6 -208 6
-278 -17 l-73 -23 -317 63 c-239 47 -333 62 -382 59 l-64 -3 -19 -73 c-16 -63
-17 -79 -6 -105 16 -40 201 -227 224 -227 9 0 58 12 108 26 l92 27 253 -7
c240 -7 257 -9 344 -36 50 -16 95 -27 100 -24 4 3 8 14 8 26 0 15 4 18 18 13
57 -24 118 -37 205 -42 85 -5 97 -4 97 10 0 22 54 31 138 24 54 -4 74 -1 105
15 22 11 80 24 130 30 60 7 100 18 116 30 36 28 87 23 121 -11 43 -42 46 -72
21 -175 -26 -111 -26 -113 3 -258 l23 -118 -23 -157 c-29 -199 -29 -211 1
-308 22 -72 25 -98 25 -247 0 -155 -2 -170 -22 -205 -19 -32 -24 -56 -26 -148
-4 -119 6 -164 38 -172 11 -3 20 -6 20 -7 0 -2 -16 -39 -35 -84 -33 -75 -36
-89 -34 -174 0 -78 -4 -104 -25 -161 -28 -74 -33 -137 -14 -200 11 -37 10 -41
-10 -55 -25 -17 -28 -54 -8 -92 12 -21 12 -27 -5 -49 -27 -33 -24 -55 15 -127
l34 -62 -26 -320 -26 -320 18 -167 c14 -120 16 -190 11 -249 -16 -159 -1 -310
32 -338 20 -16 98 -37 141 -38 l32 0 -6 113 c-6 100 -4 123 15 186 22 71 22
74 5 154 l-17 82 37 84 c31 71 36 94 36 155 -1 157 6 224 33 316 22 80 28 124
34 275 7 159 6 194 -13 301 l-21 120 34 49 c26 39 33 60 33 98 0 34 8 62 26
93 l26 45 -27 61 -28 62 31 26 c27 23 33 36 42 99 l10 73 -36 58 c-35 57 -36
60 -25 110 6 28 19 62 28 77 21 32 30 144 42 518 6 219 6 276 -6 302 -11 28
-11 75 3 310 15 260 18 281 41 321 22 38 27 42 63 42 34 0 39 3 45 29 5 24 18
34 78 61 l72 33 75 -28 c108 -41 154 -42 305 -6 72 16 163 33 204 37 60 6 79
12 96 30 l22 24 64 -26 c62 -24 70 -25 254 -22 l190 3 113 39 114 39 91 -23
92 -22 266 24 c242 21 272 22 322 9 51 -13 64 -13 129 2 51 12 116 17 213 17
200 0 211 3 235 58 11 24 20 48 20 53 0 5 -44 9 -97 9 -54 0 -138 7 -188 16
-71 13 -136 15 -305 11 -163 -3 -234 -1 -295 10 -81 15 -113 14 -200 -11 -44
-12 -55 -12 -85 1 -19 8 -79 25 -133 38 -90 21 -104 22 -180 11 -45 -7 -94
-20 -108 -29 -22 -14 -34 -16 -79 -7 -75 14 -131 12 -181 -6 -49 -17 -130 -12
-187 12 -19 8 -82 18 -140 24 -101 9 -116 8 -267 -21 -146 -29 -162 -34 -186
-61 l-27 -30 -50 36 c-95 69 -165 80 -272 44 l-64 -21 -52 27 c-28 15 -73 48
-99 73 -43 40 -51 45 -74 36 -24 -8 -27 -6 -41 31 -13 34 -22 42 -65 57 -69
24 -73 23 -88 -13z"/>
<path d="M38457 8003 l-35 -98 -48 -6 c-27 -4 -100 -27 -162 -51 l-112 -44
-138 13 c-187 17 -467 33 -582 33 -74 0 -109 -5 -159 -24 l-63 -23 -316 64
c-199 39 -341 63 -383 63 l-66 0 -17 -58 c-23 -82 -20 -113 12 -158 45 -61
185 -194 206 -194 10 0 57 12 105 26 l86 27 252 -7 c261 -7 262 -7 436 -62 10
-3 17 0 17 8 1 34 15 38 69 17 34 -12 91 -22 152 -26 87 -5 99 -4 99 10 0 21
54 31 136 24 51 -4 75 0 121 18 32 13 91 26 132 30 51 4 83 13 99 26 36 28 93
25 125 -6 48 -49 51 -71 22 -184 l-26 -103 26 -130 27 -130 -26 -187 -26 -188
25 -83 c23 -75 25 -101 25 -259 0 -157 -2 -179 -21 -218 -16 -33 -22 -69 -26
-146 -4 -110 5 -144 43 -161 20 -9 20 -11 -18 -95 -37 -82 -38 -89 -32 -161 6
-67 3 -87 -25 -173 -36 -112 -37 -126 -15 -192 16 -44 16 -48 1 -57 -31 -17
-39 -45 -22 -84 13 -32 13 -38 0 -57 -23 -33 -18 -73 17 -138 l31 -60 -26
-317 -26 -317 19 -184 c16 -150 17 -199 9 -260 -13 -92 -6 -235 14 -284 13
-30 23 -37 70 -51 30 -9 72 -16 92 -16 l37 0 -6 38 c-18 125 -17 160 5 251 22
89 22 94 6 168 l-17 76 34 76 c45 99 50 124 37 163 -9 25 -8 42 5 80 12 37 13
56 6 78 -9 24 -5 49 19 132 25 87 31 132 40 291 10 175 9 197 -11 309 l-21
120 35 54 c30 44 36 63 36 106 1 38 7 64 25 92 l24 39 -25 48 c-31 63 -30 84
5 105 27 16 30 23 36 94 7 74 6 78 -25 129 -27 44 -32 59 -28 96 3 24 15 62
27 85 12 23 21 59 21 84 0 24 7 108 15 187 8 79 15 216 15 304 0 88 0 174 1
190 1 17 -4 45 -12 62 -11 28 -11 74 3 313 15 255 18 283 39 320 20 36 27 40
61 40 34 0 40 4 49 29 8 23 25 37 76 60 36 17 70 31 77 31 6 0 47 -14 91 -31
95 -37 150 -36 305 4 52 14 131 28 174 32 64 6 83 11 103 31 l24 24 67 -26
c65 -25 73 -25 257 -21 190 4 190 4 299 42 l109 38 96 -22 96 -22 265 23 c240
21 270 22 318 9 47 -13 60 -13 125 2 49 12 115 17 208 17 75 0 156 3 180 6 47
6 42 1 87 106 2 4 -43 8 -101 8 -58 0 -142 7 -188 16 -67 13 -127 15 -294 11
-163 -4 -232 -1 -306 11 -94 15 -99 15 -175 -6 -72 -20 -81 -20 -109 -6 -16 8
-75 26 -130 38 -94 23 -105 23 -188 11 -53 -8 -96 -20 -107 -30 -16 -15 -26
-15 -70 -6 -71 15 -127 14 -190 -5 -58 -17 -111 -14 -183 12 -23 8 -87 19
-142 24 -93 9 -111 7 -267 -23 -161 -31 -168 -33 -191 -64 l-24 -33 -22 24
c-33 36 -113 75 -166 83 -35 4 -66 0 -122 -17 l-74 -24 -46 25 c-25 13 -69 45
-98 71 -45 41 -57 47 -82 42 -27 -5 -30 -3 -39 32 -8 33 -15 39 -59 55 -81 28
-79 29 -118 -78z"/>
<path d="M31790 6537 c-21 -11 -25 -20 -25 -57 0 -37 4 -47 26 -59 25 -14 30
-13 92 28 36 23 71 49 77 56 28 34 -113 61 -170 32z"/>
</g>
</svg>
